<svg id="Layer_1" data-name="Layer 1" xmlns="http://www.w3.org/2000/svg" viewBox="0 0 901.34 636.19"><defs><style>.cls-1{fill:#010101;}</style></defs><path class="cls-1" d="M943.89,490.78a52.81,52.81,0,0,0-19.48,10.51,85.11,85.11,0,0,0-11.75,12.18,306.2,306.2,0,0,0-20,27.8c-.62,1-1.32,1.93-2,2.86.17-1.15.27-2.38.55-3.56a268.86,268.86,0,0,0,5.67-32.51,263.24,263.24,0,0,0-.87-63.47c-.53-4-1.17-7.9-1.77-11.84a2.15,2.15,0,0,1,.92-2.47c5.64-3.77,9.7-9,12.85-14.86,9.38-17.53,12.93-36.17,10-55.91a42.72,42.72,0,0,0-4.81-14.41,28.92,28.92,0,0,0-9.58-10.64,4.3,4.3,0,0,0-5.68.26,10.86,10.86,0,0,0-2.65,3.15,20.6,20.6,0,0,0-2.07,5.37,67.29,67.29,0,0,0-1.5,13.11c-.13,3.3,0,6.63-.34,9.91-1,9.45-1.95,18.9-2.55,28.39-.16,2.54-.45,5.07-.74,8.37a22.77,22.77,0,0,1-1.53-4.06,349.38,349.38,0,0,0-16.22-44.56q-8-18.15-17.8-35.39c-.87-1.53-1.07-2.76.21-4.07a7.37,7.37,0,0,0,.72-1c10.27-15.12,15.24-31.92,15.78-50.1a101.51,101.51,0,0,0-2.52-25.42,105.64,105.64,0,0,0-15.8-36.53,14.58,14.58,0,0,0-1.51-2c-2.56-2.6-6.74-1.71-7.46,1.78-.14.67-.38,1.32-.54,2A136.11,136.11,0,0,0,838,226.11a247.71,247.71,0,0,0,1,42.1c1,10,2.45,20,3.67,29.92a6.49,6.49,0,0,1-.08,3.43,11.33,11.33,0,0,1-2.53-3.32,417.69,417.69,0,0,0-41.26-54.19,79.41,79.41,0,0,1-12-17.21c-.69-1.35-1.37-2.71-2.11-4-2.17-3.84-4.27-7.71-6.58-11.46a62.89,62.89,0,0,0-12.51-14.76c-10.64-9.18-23.26-13.35-37-14.65-3.41-.32-5.39,2.5-4.13,5.7,3.49,8.83,7.22,17.56,12.2,25.69a62.55,62.55,0,0,0,18,19.07,113.59,113.59,0,0,0,15,8.63c6.44,3.12,12.93,6.13,19.44,9.09a14.52,14.52,0,0,1,5.16,4,517.05,517.05,0,0,1,39.89,53.18q9.7,14.89,18.16,30.52c.49.9,1.27,1.76,1.2,3-1.25-.09-1.84-.9-2.55-1.44a194.68,194.68,0,0,0-48.24-26.71c-3.08-1.19-6.22-2.23-9.31-3.37a4.06,4.06,0,0,0-4.93,5.57A20.76,20.76,0,0,0,790,317.3a138,138,0,0,0,16.29,20.27c8.59,8.84,18,16.61,29,22.36,10,5.23,20.37,9,32,8.51a299.88,299.88,0,0,1,21.54,76.43,171.85,171.85,0,0,1,2.07,28.31c-1.41-.5-1.36-1.61-1.69-2.42-8.45-21-21.14-39.17-37.12-55.13a22.24,22.24,0,0,0-2.75-2.48,3.75,3.75,0,0,0-5.64,1.29,5.83,5.83,0,0,0-.53,4,152.59,152.59,0,0,0,5.45,23.29c4.25,13.19,10,25.63,18.34,36.77,5.9,7.91,12.78,14.82,21.32,19.9a3,3,0,0,1,1.81,3.16,207.55,207.55,0,0,1-3,22.51,326.37,326.37,0,0,1-11.72,45.53c-2.7,8.08-5.67,16.08-8.52,24.11a6.86,6.86,0,0,1-1.68,4c-1.28-.73-.2-1.48-.23-2.15a7.52,7.52,0,0,1,.4-2,3.3,3.3,0,0,0,.33-.75c1.86-11.88,2.71-23.79,1.21-35.8a82.27,82.27,0,0,0-12.56-35,14.62,14.62,0,0,0-1.71-2.32,3.92,3.92,0,0,0-6.63,1.45,28.38,28.38,0,0,0-.79,2.77A181.1,181.1,0,0,0,840,556.08a117.58,117.58,0,0,0,2.9,37.72c2.21,8.72,5.34,17.07,11.1,24.18a2,2,0,0,1,.4,1.53,7.93,7.93,0,0,1-.75,3.58c-1.21,2.15-2.23,4.42-3.35,6.62a512.18,512.18,0,0,1-49,76.89c-1.08,1.42-2.3,2.72-3.46,4.08a4.87,4.87,0,0,1-1.74,2.17c-.24-1.36-.25-1.37,1-3.32.29-.9.55-1.83.9-2.72a122.86,122.86,0,0,0,8.61-44.75,25.93,25.93,0,0,0-.09-3.3,3.47,3.47,0,0,0-4.5-3,9,9,0,0,0-2.59,1.21,28.39,28.39,0,0,0-6.65,6.15,50.17,50.17,0,0,0-6.1,9.8c-9.7,20.18-14.75,41.42-14.17,63.87a5.6,5.6,0,0,1-1.87,4.64,295.28,295.28,0,0,1-57.08,44.11,5.71,5.71,0,0,1-3.11,1.28c.72-.93,1.36-1.81,2-2.65a96.07,96.07,0,0,0,18.4-37.06c1.09-4.26,1.65-8.65,2.53-13,.5-2.48-1-5-4.65-4.67a5,5,0,0,0-3.19,1.72c-3.09,3.14-6.27,6.21-9.21,9.49a124.19,124.19,0,0,0-21.07,31.45c-3.38,7.46-5.8,15.18-6.26,23.39a4.06,4.06,0,0,1-2.88,4c-5.11,2-10.18,4.17-15.31,6.16a240.21,240.21,0,0,1-23.18,7.4c-1.32.36-2.65.72-3.94,1.2a1.78,1.78,0,0,0-1.17,2,2,2,0,0,0,1.89,1.82,18.48,18.48,0,0,0,2.88-.16c1.91-.27,3.82-.57,5.71-.94a201.76,201.76,0,0,0,56.16-20,242.62,242.62,0,0,0,31.36-19.89,3.41,3.41,0,0,1,3.71-.51,75.54,75.54,0,0,0,37.4,4.08,85.11,85.11,0,0,0,46.27-22,23.29,23.29,0,0,0,2.33-2.33,3.87,3.87,0,0,0-.71-5.8,7,7,0,0,0-3.9-1.11,134.75,134.75,0,0,0-37.45,1.77A85.54,85.54,0,0,0,768.47,757c-1.27,1.43-3.16,1.58-4.77,2.28a.7.7,0,0,1-.63-.26.87.87,0,0,1,.17-.72,15.37,15.37,0,0,1,1.19-1.09c.84-.69,1.72-1.35,2.52-2.1a348.27,348.27,0,0,0,25.2-26.21c11.56-13.35,22-27.57,32.12-42,1-1.46,2.07-2.91,3.05-4.41a2.12,2.12,0,0,1,2.81-1,19.31,19.31,0,0,0,2.43.46,56.48,56.48,0,0,0,27-.79c22.79-6.28,37.86-20.95,46.32-42.81,2-5.11-.69-6.93-4.3-7.81a14.7,14.7,0,0,0-1.64-.22,30,30,0,0,0-13,1.41,72.89,72.89,0,0,0-13.19,5.83c-9.53,5.27-18.92,10.74-27.49,17.52-.43.34-.84,1.11-1.87.54.73-1.34,1.41-2.64,2.14-3.92a439.4,439.4,0,0,0,36.71-82,18.79,18.79,0,0,1,1.29-3.9c.82-1.35,2.59-.39,3.82-1a19.59,19.59,0,0,1,2.74-.92,87.72,87.72,0,0,0,42.2-30.53A92.22,92.22,0,0,0,950.37,497C951.57,491.68,949.07,489.29,943.89,490.78Z" transform="translate(-49.33 -181.91)"/><path class="cls-1" d="M356.05,814.29a18.78,18.78,0,0,0-3.14-1,210.28,210.28,0,0,1-24.38-7.71c-4.87-1.87-9.66-4-14.52-5.89-2-.79-3.09-1.94-3.17-4.25a46,46,0,0,0-1-7.36,78.11,78.11,0,0,0-8.21-22c-7.06-13.09-16.36-24.46-27.08-34.71l-.9-.85a4.76,4.76,0,0,0-4.66-.89,3.44,3.44,0,0,0-2.53,3.36,10.11,10.11,0,0,0,.13,1.65A106.14,106.14,0,0,0,276,766.19a80.43,80.43,0,0,0,12.59,19.29c.39.36.81.7,1.18,1.1s.47.71.16,1.07c-.12.13-.52.11-.74,0A3.65,3.65,0,0,1,287,786a320.44,320.44,0,0,1-30.68-20.95,341.82,341.82,0,0,1-27.35-24,4.62,4.62,0,0,1-1.52-4,134.34,134.34,0,0,0-1.91-26.33c-1.92-11.9-5.85-23.18-10.51-34.24a62.2,62.2,0,0,0-5-9.5,32.09,32.09,0,0,0-8.89-9.67,12.53,12.53,0,0,0-2.88-1.55,3.54,3.54,0,0,0-4.91,2.89,14.5,14.5,0,0,0-.14,2.47,118.36,118.36,0,0,0,9.92,48.58,12.52,12.52,0,0,1,1.41,3.82,13.91,13.91,0,0,1-1.11-1c-.89-1.05-1.78-2.09-2.63-3.18a495.61,495.61,0,0,1-53.81-85,10.77,10.77,0,0,1-1.07-2.22c-.3-1.43-.85-3,.18-4.31,5.16-6.8,8.27-14.54,10.51-22.69a111.62,111.62,0,0,0,3.61-33.54,174.94,174.94,0,0,0-5.49-37.52,24,24,0,0,0-.91-3.17,4,4,0,0,0-6.73-1.13,18.14,18.14,0,0,0-1.66,2.36,79.39,79.39,0,0,0-10.57,24.52c-3,12-3.2,24.25-1.93,36.52.45,4.3,1.09,8.58,1.67,13a9.64,9.64,0,0,1-1-1.42c-.67-1.51-1.29-3-1.9-4.57A348.52,348.52,0,0,1,112,520.05a189.17,189.17,0,0,1-2.27-18.86,2.06,2.06,0,0,1,1-2.36c10.35-6,18.27-14.52,24.88-24.34A127.39,127.39,0,0,0,151.46,441a138.18,138.18,0,0,0,5.1-22.09,7.59,7.59,0,0,0-.07-3.67,3.84,3.84,0,0,0-6-2.1,16.23,16.23,0,0,0-2.16,1.91,171.68,171.68,0,0,0-24.26,29.7,157.25,157.25,0,0,0-13.92,27.14c-.3.76-.41,1.63-1.5,1.86a280.89,280.89,0,0,1,6.91-53.94c3.64-16.26,13.46-45.29,17.42-51.45,4.4.55,8.73-.25,13-1.25a79,79,0,0,0,25.55-11.25c15.81-10.34,28.48-23.79,38.84-39.5.22-.34.43-.7.66-1.05a3.72,3.72,0,0,0-.27-4.6c-1.18-1.6-2.55-1.95-4.73-1.3-.39.12-.79.23-1.18.36A199.65,199.65,0,0,0,149.26,339c-.83.63-1.69,1.21-3,2.14A9.39,9.39,0,0,1,148,337c16.25-30.05,36-57.64,58.19-83.58a10.64,10.64,0,0,1,3.88-3c3.14-1.4,6.24-2.89,9.37-4.32,6.76-3.1,13.45-6.31,19.92-10a66.13,66.13,0,0,0,26-26.43,228.28,228.28,0,0,0,10-21.74,8.66,8.66,0,0,0,.49-1.57,3.53,3.53,0,0,0-1.83-3.81,5.36,5.36,0,0,0-3.19-.64c-2.86.43-5.73.75-8.56,1.32-15.18,3.07-27.66,10.52-36.95,23a128.29,128.29,0,0,0-9.47,15.49c-2.16,4-4.36,8-6.54,11.94a32.85,32.85,0,0,1-4.62,6.32c-3.52,3.87-7,7.79-10.37,11.78A443.3,443.3,0,0,0,159.45,299c-.54.84-.8,2-2.17,2.17a13.54,13.54,0,0,1,0-1.69c.6-4.78,1.19-9.56,1.83-14.34a367.65,367.65,0,0,0,3.4-39.9,172.12,172.12,0,0,0-2.09-32.94c-.6-3.52-1.51-7-2.28-10.48a4.15,4.15,0,0,0-3.57-3.53,4.49,4.49,0,0,0-4.33,1.9c-.6.75-1.12,1.56-1.65,2.37-13.87,21.15-19.82,44.26-17.16,69.49a90,90,0,0,0,15.29,41.82q.59.86,1.2,1.68a1.91,1.91,0,0,1,0,2.3c-.28.47-.55,1-.82,1.43a365.75,365.75,0,0,0-33.83,80c-.25.87-.26,1.91-1.26,2.43a4.15,4.15,0,0,1-.38-2.31c-.43-5.22-.89-10.43-1.24-15.65-.63-9.61-2.25-19.14-2.23-28.82a49.43,49.43,0,0,0-1.42-12.28,16.55,16.55,0,0,0-3.34-7c-2.51-2.86-4.87-3.14-7.94-.9a30.47,30.47,0,0,0-9.38,11.35,50.42,50.42,0,0,0-4.86,19.09,91.53,91.53,0,0,0,7.57,43.51c3.67,8.42,8.43,16.12,16.27,21.42a1.63,1.63,0,0,1,.81,1.72c-.07.55-.15,1.09-.25,1.63A263.6,263.6,0,0,0,109,540.84c.14.56.54,1.22-.14,1.75-.73-.3-1-1-1.34-1.55a311.24,311.24,0,0,0-19-26.53,89.76,89.76,0,0,0-10-11,56.75,56.75,0,0,0-22.25-13,14.67,14.67,0,0,0-2.39-.6,3.82,3.82,0,0,0-4.36,2.94,6.28,6.28,0,0,0,0,3.25A73.46,73.46,0,0,0,53,508c9.15,24,25,41.83,48.48,52.66a50.71,50.71,0,0,0,12.08,4.12,2.56,2.56,0,0,1,2.48,2.08Q119.88,579,124.54,591a449.7,449.7,0,0,0,29.3,60.95c.71,1.24,1.7,2.37,2,4.12a12.16,12.16,0,0,1-1.25-.74c-9.37-7.56-19.75-13.51-30.37-19.08a59.92,59.92,0,0,0-13.38-5.34,27,27,0,0,0-12.67-.57c-3.43.77-5.94,3.32-4.12,7.25.23.5.34,1.05.54,1.56A67.74,67.74,0,0,0,111.84,665c15.65,14.44,34,20.36,55.15,16.77,1.6-.27,3.33-1.6,4.76-.62,1.27.87,2,2.55,2.94,3.9,17.63,25.6,36.94,49.77,59.82,70.94.46.44,1.11.78,1.14,1.55-.71.44-1.29,0-1.92-.24-2.56-1-5.1-2.06-7.71-2.93-16.33-5.43-33.13-6.64-50.19-5.51a17,17,0,0,0-4.07.65,4,4,0,0,0-1.84,6.6c.76.8,1.55,1.57,2.36,2.31a84,84,0,0,0,21.53,14.44c20.14,9.3,40.73,11,61.79,3.41a3.85,3.85,0,0,1,4.14.59,226.62,226.62,0,0,0,21.63,14.44,203.56,203.56,0,0,0,63.48,24.87c3.37.69,6.78,1.18,10.18,1.7a1.91,1.91,0,0,0,2.11-1.57A1.77,1.77,0,0,0,356.05,814.29Z" transform="translate(-49.33 -181.91)"/></svg>